<?xml version="1.0" encoding="utf-8"?>
<!-- Generator: Adobe Illustrator 16.0.0, SVG Export Plug-In . SVG Version: 6.00 Build 0)  -->
<!DOCTYPE svg PUBLIC "-//W3C//DTD SVG 1.1//EN" "http://www.w3.org/Graphics/SVG/1.1/DTD/svg11.dtd">
<svg version="1.1" id="Layer_1" xmlns="http://www.w3.org/2000/svg" xmlns:xlink="http://www.w3.org/1999/xlink" x="0px" y="0px"
	 width="2125.965px" height="1632px" viewBox="0 0 2125.965 1632" enable-background="new 0 0 2125.965 1632" xml:space="preserve">
<g>
	<path fill="#A59482" d="M315.265,902.897l0.043-0.798l14.784-274.992l0.79,0.941l162.694,193.9l-0.582,0.264L315.265,902.897z
		 M330.929,629.613l-14.61,271.74l175.693-79.76L330.929,629.613z"/>
	<path fill="#A59482" d="M477.221,738.779l-0.274-0.205L328.797,627.684l1.767,0.195l268.572,29.595L477.221,738.779z
		 M332.224,629.037l145.029,108.555l119.127-79.446L332.224,629.037z"/>
	<path fill="#A59482" d="M612.756,822.518l-0.539-0.333l-137.493-84.982l154.463,30.055l-0.151,0.513L612.756,822.518z
		 M479.749,739.168l132.438,81.858l15.766-53.021L479.749,739.168z"/>
	<path fill="#A59482" d="M614.179,822.257H492.391l-15.831-85.061L614.179,822.257z M493.196,821.287h117.568l-132.851-82.113
		L493.196,821.287z"/>
	<path fill="#A59482" d="M462.807,1069.639l0.069-0.59l29.537-248.182l289.62,222.563l-1.252,0.103L462.807,1069.639z
		 M493.175,822.676l-29.266,245.899l315.541-25.907L493.175,822.676z"/>
	<path fill="#A59482" d="M780.453,1043.664l-0.166-0.446l-77.705-208.917l163.15,179.527L780.453,1043.664z M705.242,838.67
		l75.788,203.765l82.999-29.038L705.242,838.67z"/>
	<path fill="#A59482" d="M705.437,837.222l-93.587-15.059l16.476-55.412L705.437,837.222z M613.094,821.381l89.293,14.368
		l-73.572-67.237L613.094,821.381z"/>
	<path fill="#9E1F63" d="M702.517,837.789l88.426-140.348l32.495,75.058l-0.392,0.212L702.517,837.789z M790.783,699.514
		l-85.477,135.667l116.888-63.112L790.783,699.514z"/>
	<path fill="#A59482" d="M628.252,768.294L597.075,657.17l0.783,0.165l194.61,40.985L628.252,768.294z M598.441,658.449
		l30.446,108.52l160.369-68.334L598.441,658.449z"/>
	<path fill="#A59482" d="M530.33,1424.309l-0.245-0.975L329.166,625.007l345.89,610.049l-0.194,0.255L530.33,1424.309z
		 M331.854,631.715l198.926,790.408l143.115-187.146L331.854,631.715z"/>
	<path fill="#A59482" d="M596.625,659.524l46.28-128.381l0.187-0.085l179.724-81.596l-2.187,2.029L596.625,659.524z
		 M643.679,531.857l-44.787,124.237l218.892-203.282L643.679,531.857z"/>
	<path fill="#A59482" d="M642.765,532.272l0.043-0.798l14.789-274.993l163.484,194.833l-0.581,0.265L642.765,532.272z
		 M658.433,258.987l-14.613,271.741l175.697-79.769L658.433,258.987z"/>
	<path fill="#A59482" d="M784.234,699.654l-0.3-1.043L657.35,257.173l0.719,0.079l267.638,29.488l14.772,164.517l-0.087,0.139
		L784.234,699.654z M658.68,258.295l125.889,439.006l154.915-246.283l-14.672-163.399L658.68,258.295z"/>
	<path fill="#A59482" d="M1031.498,466.36l-0.163-0.026l-91.393-14.712H819.413l105.674-165.074l0.392,0.199l225.883,114.895
		l-0.814,0.439L1031.498,466.36z M821.186,450.652h118.835l0.038,0.007l91.269,14.691l117.945-63.684L925.431,287.811
		L821.186,450.652z"/>
	<polygon fill="#A59482" points="995.597,888.917 995.064,887.593 819.849,451.318 820.745,450.948 995.961,864.196 
		995.068,864.575 839.653,498.028 995.433,885.907 1001.487,864.302 1030.918,465.972 924.842,287.427 925.676,286.932 
		1031.907,465.738 1031.896,465.891 1002.447,864.47 	"/>
	<path fill="#A59482" d="M531.38,1425.012l-1.202-1.492L300.93,1138.852l-0.395,0.183l0.023-0.388l-151.699-29.508L316.37,900.631
		l-14.766,236.838l162.181-75.248l164.504-295.082l0.292,0.008l194.387,4.656l167.703,111.798L790.533,698.834l0.658-0.713
		l204.652,188.935l-0.599,0.76l-172.582-115.05l-193.813-4.643l-164.21,294.555L531.38,1425.012z M301.836,1138.431l227.896,282.989
		l-65.963-358.123L301.836,1138.431z M150.622,1108.493l149.998,29.177l14.593-234.049L150.622,1108.493z"/>
	<path fill="#9E1F63" d="M992.805,1171.113l2.233-284.78l0.801,0.719l129.856,116.54l-0.283,0.357L992.805,1171.113z
		 M995.991,888.491l-2.194,279.812l130.571-164.599L995.991,888.491z"/>
	<polygon fill="#A59482" points="1269.912,1395.064 1218.815,1235.63 1033.304,1297.025 864.549,1340.771 864.416,1340.32 
		775.675,1039.652 776.605,1039.377 865.214,1339.596 1033.029,1296.096 1219.439,1234.401 1270.104,1392.484 1389.114,1151.332 
		1403.981,1263.967 1537.103,1263.967 1493.179,974.123 1493.244,973.987 1546.002,864.568 1453.435,807.32 1453.433,807.053 
		1452.059,634.396 1321.341,799.174 1361.114,925.791 1374.763,974.7 1192.036,970.029 1191.925,969.716 1139.245,821.786 
		1191.649,643.753 1108.222,672.94 1108.046,672.863 1075.44,658.428 865.472,1013.566 995.443,1171.549 993.052,1170.125 
		780.493,1043.465 780.99,1042.633 991.157,1167.866 864.291,1013.658 864.464,1013.365 1075.045,657.191 1108.264,671.898 
		1193.114,642.213 1140.265,821.758 1192.727,969.077 1373.477,973.696 1360.185,926.066 1320.262,798.974 1320.421,798.772 
		1453.007,631.641 1454.4,806.777 1547.255,864.203 1547.065,864.597 1494.183,974.273 1538.23,1264.937 1403.131,1264.937 
		1403.075,1264.516 1388.57,1154.625 	"/>
	<polygon fill="#A59482" points="1001.571,865.016 1001.488,864.458 939.502,451.209 940.461,451.065 1002.363,863.756 
		1139.652,821.296 1139.694,821.291 1320.319,798.646 1322.53,516.778 1323.5,516.786 1321.283,799.502 1320.861,799.555 
		1139.857,822.248 	"/>
	
		<rect x="952.209" y="835.167" transform="matrix(0.0451 0.999 -0.999 0.0451 1900.1213 -316.4911)" fill="#9E1F63" width="326.798" height="0.97"/>
	<polygon fill="#A59482" points="1033.151,1298.185 992.838,1169.854 993.764,1169.563 1033.151,1294.946 1124.631,1003.308 
		1124.813,1003.215 1192.793,968.802 1219.54,1234.277 1388.332,1152.687 1373.593,973.713 1493.067,973.713 1453.529,807.512 
		1320.562,799.545 1320.427,799.382 1191.723,642.945 1192.045,642.634 1322.738,516.375 1322.814,516.341 1467.805,450.354 
		1453.063,632.467 1700.271,603.244 1466.861,444.913 1466.807,444.777 1402.303,287.363 1403.2,286.995 1467.648,444.274 
		1702.968,603.902 1701.677,604.055 1452.001,633.569 1466.705,451.92 1323.292,517.189 1193.041,643.021 1321.041,798.603 
		1454.306,806.586 1454.389,806.937 1494.295,974.684 1374.646,974.684 1389.354,1153.27 1389.054,1153.415 1218.715,1235.754 
		1218.645,1235.064 1191.97,970.306 1125.434,1003.988 	"/>
	<path fill="#A59482" d="M1453.806,1424.467l-50.758-160.014l0.045-0.146l45.488-146.498l-59.803,35.772l-0.267-0.25
		l-196.78-183.722l128.813-171.002l0.217-0.019l325.327-26.763l55.18-168.739h119.289l-39.73-167.06l0.504-0.091l193.104-34.863
		V628.83l-0.563-0.091l-152.537-24.648l-173.398,167.432l0.066-0.012l-0.475,0.438l68.998,9.937l0.098,0.074l150,112.348h-135.336
		l-84.416,104.827l-108.766,265.522l-0.011,0.021L1453.806,1424.467z M1404.064,1264.45l49.965,157.514l83.197-157.718
		l108.224-264.197l-195.622,117.015L1404.064,1264.45z M1193.031,969.496l195.875,182.879l60.105-35.953l44.206-142.367l0.926,0.287
		l-43.884,141.334l195.481-116.932l-99.762-134.419l98.918-91.269l-190.894,34.469l-0.173-0.953l182.656-32.982l-315.43,25.949
		L1193.031,969.496z M1547.277,864.447l99.188,133.646l84.357-104.756h132.887l-147.568-110.527l-69.532-10.014L1547.277,864.447z
		 M1701.972,604.059l-54.453,166.52l172.453-166.52H1701.972z M1821.569,603.146l151.896,24.545V402.234l-191.459,34.566
		L1821.569,603.146z"/>
	<polygon fill="#A59482" points="1074.868,658.346 1074.771,657.918 1031.042,466.41 643.373,531.979 643.211,531.022 
		1031.332,465.377 1031.783,465.301 1031.885,465.747 1075.618,657.273 1191.816,642.565 1149.645,400.623 1323.339,516.422 
		1452.856,632.657 1452.209,633.379 1322.717,517.167 1150.988,402.686 1192.946,643.4 	"/>
	<path fill="#9E1F63" d="M478.076,1069.107c0,8.131-6.592,14.727-14.723,14.727c-8.127,0-14.719-6.596-14.719-14.727
		s6.592-14.723,14.719-14.723C471.484,1054.385,478.076,1060.977,478.076,1069.107z"/>
	<path fill="#9E1F63" d="M689.189,1235.016c0,8.131-6.592,14.723-14.723,14.723c-8.122,0-14.713-6.592-14.713-14.723
		s6.591-14.727,14.713-14.727C682.598,1220.289,689.189,1226.885,689.189,1235.016z"/>
	<path fill="#9E1F63" d="M879.604,1013.613c0,8.127-6.592,14.722-14.723,14.722s-14.722-6.595-14.722-14.722
		c0-8.132,6.591-14.728,14.722-14.728S879.604,1005.481,879.604,1013.613z"/>
	<path fill="#90278E" d="M1008.015,1169.699c0,8.131-6.583,14.723-14.714,14.723c-8.132,0-14.723-6.592-14.723-14.723
		s6.591-14.714,14.723-14.714C1001.432,1154.985,1008.015,1161.568,1008.015,1169.699z"/>
	<circle fill="#90278E" cx="864.881" cy="1340.184" r="14.722"/>
	<path fill="#9E1F63" d="M1139.755,1003.648c0,8.131-6.592,14.713-14.723,14.713s-14.723-6.582-14.723-14.713
		c0-8.132,6.592-14.723,14.723-14.723S1139.755,995.517,1139.755,1003.648z"/>
	<path fill="#9E1F63" d="M795.465,1043.049c0,8.131-6.592,14.723-14.723,14.723c-8.132,0-14.714-6.592-14.714-14.723
		s6.582-14.714,14.714-14.714C788.873,1028.335,795.465,1034.918,795.465,1043.049z"/>
	<path fill="#90278E" d="M1047.873,1296.565c0,8.126-6.591,14.714-14.722,14.714s-14.723-6.588-14.723-14.714
		c0-8.131,6.592-14.727,14.723-14.727S1047.873,1288.435,1047.873,1296.565z"/>
	<path fill="#9E1F63" d="M545.278,1423.216c0,8.126-6.591,14.722-14.723,14.722c-8.131,0-14.722-6.596-14.722-14.722
		c0-8.132,6.591-14.728,14.722-14.728C538.688,1408.488,545.278,1415.084,545.278,1423.216z"/>
	<path fill="#652D90" d="M164.459,1108.815c0,8.132-6.592,14.722-14.723,14.722c-8.127,0-14.718-6.59-14.718-14.722
		s6.591-14.723,14.718-14.723C157.867,1094.093,164.459,1100.684,164.459,1108.815z"/>
	<path fill="#9E1F63" d="M330.515,902.126c0,8.131-6.592,14.727-14.723,14.727s-14.723-6.596-14.723-14.727
		c0-8.126,6.592-14.714,14.723-14.714S330.515,894,330.515,902.126z"/>
	<path fill="#9E1F63" d="M315.792,1138.252c0,8.131-6.592,14.727-14.723,14.727s-14.718-6.596-14.718-14.727
		c0-8.127,6.587-14.715,14.718-14.715S315.792,1130.125,315.792,1138.252z"/>
	<path fill="#652D90" d="M627.194,821.771c0,8.131-6.591,14.718-14.723,14.718c-8.122,0-14.714-6.587-14.714-14.718
		s6.592-14.723,14.714-14.723C620.604,807.049,627.194,813.641,627.194,821.771z"/>
	<path fill="#652D90" d="M345.232,628.36c0,8.131-6.596,14.727-14.723,14.727c-8.131,0-14.718-6.596-14.718-14.727
		c0-8.127,6.587-14.714,14.718-14.714C338.637,613.646,345.232,620.233,345.232,628.36z"/>
	<path fill="#652D90" d="M507.521,821.771c0,8.131-6.592,14.718-14.727,14.718c-8.127,0-14.718-6.587-14.718-14.718
		s6.591-14.723,14.718-14.723C500.929,807.049,507.521,813.641,507.521,821.771z"/>
	<path fill="#90278E" d="M612.476,653.606c0,8.122-6.591,14.714-14.713,14.714c-8.131,0-14.723-6.592-14.723-14.714
		c0-8.132,6.592-14.723,14.723-14.723C605.885,638.884,612.476,645.475,612.476,653.606z"/>
	<path fill="#9E1F63" d="M837.538,772.275c0,8.132-6.592,14.723-14.723,14.723s-14.722-6.591-14.722-14.723
		c0-8.127,6.591-14.714,14.722-14.714S837.538,764.148,837.538,772.275z"/>
	<path fill="#9E1F63" d="M1089.965,657.81c0,8.122-6.592,14.714-14.722,14.714c-8.132,0-14.715-6.592-14.715-14.714
		c0-8.132,6.583-14.723,14.715-14.723C1083.373,643.087,1089.965,649.678,1089.965,657.81z"/>
	<path fill="#9E1F63" d="M1154.477,821.771c0,8.131-6.591,14.718-14.722,14.718s-14.714-6.587-14.714-14.718
		s6.583-14.723,14.714-14.723S1154.477,813.641,1154.477,821.771z"/>
	<path fill="#90278E" d="M1233.851,1235.016c0,8.131-6.592,14.723-14.723,14.723c-8.122,0-14.714-6.592-14.714-14.723
		s6.592-14.727,14.714-14.727C1227.259,1220.289,1233.851,1226.885,1233.851,1235.016z"/>
	<path fill="#D91C5C" d="M1388.843,974.198c0,8.131-6.592,14.728-14.724,14.728c-8.13,0-14.722-6.597-14.722-14.728
		c0-8.126,6.592-14.709,14.722-14.709C1382.251,959.489,1388.843,966.072,1388.843,974.198z"/>
	<path fill="#9E1F63" d="M1403.556,1152.979c0,8.131-6.591,14.713-14.713,14.713c-8.132,0-14.724-6.582-14.724-14.713
		s6.592-14.727,14.724-14.727C1396.965,1138.252,1403.556,1144.848,1403.556,1152.979z"/>
	<path fill="#9E1F63" d="M1284.729,1393.775c0,8.131-6.591,14.713-14.722,14.713s-14.714-6.582-14.714-14.713
		c0-8.132,6.583-14.723,14.714-14.723S1284.729,1385.644,1284.729,1393.775z"/>
	<path fill="#C72A90" d="M1552.39,1264.451c0,8.132-6.601,14.728-14.723,14.728c-8.131,0-14.723-6.596-14.723-14.728
		c0-8.126,6.592-14.713,14.723-14.713C1545.789,1249.738,1552.39,1256.325,1552.39,1264.451z"/>
	<path fill="#90278E" d="M1468.64,1423.216c0,8.126-6.592,14.722-14.723,14.722s-14.723-6.596-14.723-14.722
		c0-8.132,6.592-14.728,14.723-14.728S1468.64,1415.084,1468.64,1423.216z"/>
	<path fill="#C72A90" d="M1418.278,1264.451c0,8.132-6.592,14.728-14.723,14.728s-14.713-6.596-14.713-14.728
		c0-8.126,6.582-14.713,14.713-14.713S1418.278,1256.325,1418.278,1264.451z"/>
	<path fill="#9E1F63" d="M1661.163,998.886c0,8.131-6.591,14.728-14.713,14.728c-8.141,0-14.723-6.597-14.723-14.728
		s6.582-14.714,14.723-14.714C1654.572,984.172,1661.163,990.755,1661.163,998.886z"/>
	<path fill="#9E1F63" d="M1468.64,807.049c0,8.127-6.592,14.723-14.723,14.723s-14.723-6.596-14.723-14.723
		c0-8.131,6.592-14.714,14.723-14.714S1468.64,798.918,1468.64,807.049z"/>
	<path fill="#9E1F63" d="M1508.396,974.198c0,8.131-6.592,14.728-14.715,14.728c-8.14,0-14.722-6.597-14.722-14.728
		c0-8.126,6.582-14.709,14.722-14.709C1501.804,959.489,1508.396,966.072,1508.396,974.198z"/>
	<path fill="#9E1F63" d="M1661.163,772.275c0,8.132-6.591,14.723-14.713,14.723c-8.141,0-14.723-6.591-14.723-14.723
		c0-8.127,6.582-14.714,14.723-14.714C1654.572,757.562,1661.163,764.148,1661.163,772.275z"/>
	<path fill="#652D90" d="M718.635,836.485c0,8.13-6.592,14.722-14.723,14.722s-14.723-6.592-14.723-14.722
		c0-8.132,6.592-14.714,14.723-14.714S718.635,828.354,718.635,836.485z"/>
	<path fill="#9E1F63" d="M1010.237,887.412c0,8.127-6.601,14.723-14.723,14.723c-8.131,0-14.722-6.596-14.722-14.723
		s6.591-14.722,14.722-14.722C1003.637,872.69,1010.237,879.285,1010.237,887.412z"/>
	<path fill="#9E1F63" d="M805.576,698.478c0,8.131-6.591,14.727-14.714,14.727c-8.131,0-14.723-6.596-14.723-14.727
		c0-8.127,6.592-14.722,14.723-14.722C798.985,683.756,805.576,690.351,805.576,698.478z"/>
	<path fill="#9E1F63" d="M1016.699,864.386c0,8.131-6.601,14.723-14.731,14.723c-8.123,0-14.714-6.592-14.714-14.723
		s6.591-14.718,14.714-14.718C1010.099,849.668,1016.699,856.255,1016.699,864.386z"/>
	<circle fill="#9E1F63" cx="1192.382" cy="642.982" r="14.722"/>
	<path fill="#9E1F63" d="M1335.515,799.074c0,8.126-6.582,14.722-14.714,14.722c-8.131,0-14.723-6.596-14.723-14.722
		c0-8.132,6.592-14.719,14.723-14.719C1328.933,784.355,1335.515,790.942,1335.515,799.074z"/>
	<path fill="#D91C5C" d="M1207.104,969.554c0,8.126-6.592,14.723-14.723,14.723s-14.722-6.597-14.722-14.723
		c0-8.132,6.591-14.718,14.722-14.718S1207.104,961.422,1207.104,969.554z"/>
	<circle fill="#9E1F63" cx="1452.533" cy="633.018" r="14.722"/>
	<path fill="#9E1F63" d="M1122.974,672.419c0,8.131-6.601,14.723-14.731,14.723s-14.714-6.592-14.714-14.723
		s6.583-14.714,14.714-14.714S1122.974,664.288,1122.974,672.419z"/>
	<path fill="#D91C5C" d="M1375.365,925.936c0,8.131-6.592,14.718-14.713,14.718c-8.132,0-14.723-6.587-14.723-14.718
		s6.591-14.727,14.723-14.727C1368.773,911.209,1375.365,917.805,1375.365,925.936z"/>
	<circle fill="#652D90" cx="477.237" cy="738.186" r="14.722"/>
	<path fill="#9E1F63" d="M658.015,531.501c0,8.122-6.591,14.722-14.723,14.722c-8.131,0-14.723-6.6-14.723-14.722
		c0-8.132,6.592-14.719,14.723-14.719C651.424,516.782,658.015,523.369,658.015,531.501z"/>
	<path fill="#652D90" d="M643.292,767.622c0,8.131-6.591,14.726-14.723,14.726c-8.131,0-14.713-6.595-14.713-14.726
		c0-8.127,6.582-14.714,14.713-14.714C636.701,752.908,643.292,759.495,643.292,767.622z"/>
	<path fill="#9E1F63" d="M954.703,451.138c0,8.131-6.6,14.726-14.722,14.726c-8.131,0-14.723-6.595-14.723-14.726
		c0-8.127,6.592-14.723,14.723-14.723C948.104,436.415,954.703,443.011,954.703,451.138z"/>
	<circle fill="#9E1F63" cx="658.015" cy="257.734" r="14.723"/>
	<path fill="#9E1F63" d="M835.021,451.138c0,8.131-6.592,14.726-14.723,14.726c-8.132,0-14.723-6.595-14.723-14.726
		c0-8.127,6.591-14.723,14.723-14.723C828.43,436.415,835.021,443.011,835.021,451.138z"/>
	<path fill="#9E1F63" d="M939.981,287.18c0,8.127-6.592,14.713-14.723,14.713s-14.723-6.586-14.723-14.713
		c0-8.131,6.592-14.728,14.723-14.728S939.981,279.049,939.981,287.18z"/>
	<path fill="#9E1F63" d="M1165.039,401.654c0,8.127-6.592,14.715-14.723,14.715s-14.723-6.588-14.723-14.715
		c0-8.131,6.592-14.727,14.723-14.727S1165.039,393.523,1165.039,401.654z"/>
	<path fill="#9E1F63" d="M1417.466,287.18c0,8.127-6.592,14.713-14.714,14.713c-8.131,0-14.723-6.586-14.723-14.713
		c0-8.131,6.592-14.728,14.723-14.728C1410.874,272.452,1417.466,279.049,1417.466,287.18z"/>
	<path fill="#9E1F63" d="M1481.978,451.138c0,8.131-6.592,14.726-14.723,14.726s-14.723-6.595-14.723-14.726
		c0-8.127,6.592-14.723,14.723-14.723S1481.978,443.011,1481.978,451.138z"/>
	<path fill="#9E1F63" d="M1561.351,864.386c0,8.131-6.591,14.723-14.723,14.723c-8.13,0-14.714-6.592-14.714-14.723
		s6.584-14.718,14.714-14.718C1554.76,849.668,1561.351,856.255,1561.351,864.386z"/>
	<path fill="#9E1F63" d="M1716.333,603.573c0,8.131-6.582,14.723-14.713,14.723s-14.723-6.592-14.723-14.723
		c0-8.127,6.592-14.714,14.723-14.714S1716.333,595.446,1716.333,603.573z"/>
	<path fill="#9E1F63" d="M1731.056,782.348c0,8.132-6.59,14.719-14.723,14.719c-8.13,0-14.713-6.587-14.713-14.719
		c0-8.13,6.583-14.726,14.713-14.726C1724.466,767.622,1731.056,774.218,1731.056,782.348z"/>
	<path fill="#D91C5C" d="M1879.89,893.822c0,8.131-6.592,14.727-14.723,14.727s-14.723-6.596-14.723-14.727
		c0-8.123,6.592-14.714,14.723-14.714S1879.89,885.699,1879.89,893.822z"/>
	<path fill="#9E1F63" d="M1745.788,893.822c0,8.131-6.602,14.727-14.732,14.727c-8.123,0-14.723-6.596-14.723-14.727
		c0-8.123,6.6-14.714,14.723-14.714C1739.187,879.108,1745.788,885.699,1745.788,893.822z"/>
	<path fill="#C72A90" d="M1988.673,628.261c0,8.127-6.6,14.722-14.723,14.722c-8.131,0-14.73-6.595-14.73-14.722
		c0-8.131,6.6-14.714,14.73-14.714C1982.073,613.547,1988.673,620.13,1988.673,628.261z"/>
	<path fill="#C72A90" d="M1796.14,436.415c0,8.126-6.6,14.723-14.723,14.723c-8.131,0-14.723-6.597-14.723-14.723
		c0-8.127,6.592-14.714,14.723-14.714C1789.54,421.701,1796.14,428.288,1796.14,436.415z"/>
	<path fill="#C72A90" d="M1835.903,603.573c0,8.131-6.6,14.723-14.73,14.723c-8.123,0-14.715-6.592-14.715-14.723
		c0-8.127,6.592-14.714,14.715-14.714C1829.304,588.859,1835.903,595.446,1835.903,603.573z"/>
	<path fill="#C72A90" d="M1988.673,401.654c0,8.127-6.6,14.715-14.723,14.715c-8.131,0-14.73-6.588-14.73-14.715
		c0-8.131,6.6-14.727,14.73-14.727C1982.073,386.928,1988.673,393.523,1988.673,401.654z"/>
	<path fill="#9E1F63" d="M1046.135,465.855c0,8.131-6.591,14.722-14.723,14.722c-8.131,0-14.713-6.591-14.713-14.722
		s6.582-14.718,14.713-14.718C1039.544,451.138,1046.135,457.725,1046.135,465.855z"/>
	<path fill="#9E1F63" d="M1337.737,516.782c0,8.127-6.591,14.719-14.723,14.719c-8.131,0-14.722-6.592-14.722-14.719
		c0-8.131,6.591-14.727,14.722-14.727C1331.146,502.056,1337.737,508.651,1337.737,516.782z"/>
</g>
<circle fill="#9B00C3" cx="1557.75" cy="547.624" r="103.11"/>
<circle fill="#FF0041" cx="1394.112" cy="791.061" r="103.111"/>
<path fill="#FFFFFF" d="M1429.077,774.3h-18.207v-18.204c0-6.854-5.56-12.411-12.414-12.411h-8.688
	c-6.856,0-12.413,5.557-12.413,12.411V774.3h-18.207c-6.855,0-12.412,5.56-12.412,12.417v8.688c0,6.854,5.557,12.411,12.412,12.411
	h18.206v18.208c0,6.852,5.557,12.411,12.413,12.411h8.689c6.854,0,12.414-5.56,12.414-12.411v-18.206h18.206
	c6.855,0,12.412-5.559,12.412-12.412v-8.689C1441.489,779.86,1435.931,774.3,1429.077,774.3z"/>
<circle fill="#231F20" cx="1646.445" cy="998.886" r="103.111"/>
<circle fill="#FF0041" cx="344.102" cy="627.303" r="103.111"/>
<g transform="translate(0,-952.36218)">
	<path fill="#FFFFFF" d="M1646.445,1894.28c-15.22,0-30.438,2.682-44.812,8.043c-1.06,0.234-1.918,1.01-2.258,2.04l-9.281,28.227
		l-8.532,25.95c-1.647,0.117-2.909,1.514-2.859,3.164c0.344,10.854,11.139,18.823,23.598,18.823
		c12.458,0,23.253-7.969,23.596-18.823c0.051-1.65-1.211-3.047-2.858-3.164l-8.532-25.95l-8.338-25.357
		c11.992-4.186,24.577-6.435,37.206-6.749v89.152c-4.518,0.207-8.595,0.867-11.884,1.903c-2.012,0.632-3.735,1.385-5.172,2.454
		c-1.436,1.069-2.801,2.721-2.801,4.905c0,2.187,1.369,3.833,2.805,4.899c1.436,1.065,3.158,1.816,5.169,2.448
		c4.021,1.264,9.219,1.97,14.961,1.97c5.735,0,10.93-0.707,14.949-1.971c2.009-0.631,3.731-1.382,5.167-2.447
		s2.804-2.713,2.804-4.899c0-2.185-1.365-3.836-2.801-4.905s-3.159-1.822-5.169-2.454c-3.286-1.035-7.36-1.696-11.871-1.902v-89.152
		c12.624,0.315,25.203,2.564,37.19,6.748l-8.337,25.357l-8.533,25.95c-1.647,0.117-2.908,1.514-2.858,3.164
		c0.343,10.855,11.138,18.824,23.597,18.824s23.254-7.969,23.597-18.824c0.05-1.65-1.211-3.047-2.858-3.164l-8.533-25.95
		l-9.28-28.227c-0.341-1.029-1.197-1.804-2.257-2.039C1676.884,1896.963,1661.664,1894.28,1646.445,1894.28L1646.445,1894.28z
		 M1602.301,1915.183l6.355,19.33l7.896,24.016h-28.505l7.896-24.016L1602.301,1915.183L1602.301,1915.183z M1690.59,1915.183
		l6.355,19.33l7.896,24.016h-28.505l7.897-24.016L1690.59,1915.183L1690.59,1915.183z M1585.498,1964.687h33.604
		c-2.008,5.362-8.525,9.684-16.802,9.684C1594.022,1974.37,1587.506,1970.049,1585.498,1964.687z M1673.787,1964.687h33.605
		c-2.009,5.362-8.525,9.684-16.803,9.684S1675.796,1970.049,1673.787,1964.687L1673.787,1964.687z M1646.452,1995.724
		c5.211,0,9.937,0.692,13.101,1.688c1.536,0.483,2.694,1.058,3.285,1.482c-0.593,0.423-1.749,0.994-3.283,1.477
		c-3.166,0.995-7.892,1.687-13.103,1.687c-5.219,0-9.948-0.691-13.115-1.688c-1.535-0.482-2.691-1.054-3.285-1.477
		c0.592-0.424,1.749-0.998,3.287-1.481C1636.504,1996.415,1641.233,1995.724,1646.452,1995.724L1646.452,1995.724z"/>
</g>
<circle fill="#FF5A00" cx="993.796" cy="1043.664" r="103.111"/>
<g>
	<path fill="#FFFFFF" d="M980.145,1044.594c0-3.93-3.103-7.031-7.032-7.031c-3.931,0-7.033,3.102-7.033,7.031
		c0,3.931,3.103,7.033,7.033,7.033C977.042,1051.627,980.145,1048.524,980.145,1044.594z M973.113,1047.49
		c-1.655,0-2.896-1.24-2.896-2.896c0-1.654,1.24-2.895,2.896-2.895c1.654,0,2.896,1.24,2.896,2.895
		C976.008,1046.25,974.767,1047.49,973.113,1047.49z"/>
	<path fill="#FFFFFF" d="M1013.859,1037.563c-3.93,0-7.032,3.102-7.032,7.031c0,3.931,3.103,7.033,7.032,7.033
		s7.033-3.103,7.033-7.033C1020.892,1040.664,1017.789,1037.563,1013.859,1037.563z M1013.859,1047.49
		c-1.654,0-2.896-1.24-2.896-2.896c0-1.654,1.241-2.895,2.896-2.895c1.655,0,2.896,1.24,2.896,2.895
		C1016.754,1046.25,1015.514,1047.49,1013.859,1047.49z"/>
	<path fill="#FFFFFF" d="M1004.965,1061.348h-26.062c-1.241,0-2.068,0.828-2.068,2.069s0.827,2.067,2.068,2.067h26.062
		c1.241,0,2.068-0.826,2.068-2.067C1007.034,1062.383,1006.207,1061.348,1004.965,1061.348z"/>
	<path fill="#FFFFFF" d="M937.744,978.613c-5.585,0-10.135,4.758-10.135,10.342c0,5.585,4.55,10.135,10.135,10.135
		c5.584,0,10.135-4.55,10.135-10.135C947.878,983.371,943.328,978.613,937.744,978.613z M937.744,994.954
		c-3.31,0-5.998-2.689-5.998-5.999s2.688-5.998,5.998-5.998s5.998,2.688,5.998,5.998S941.053,994.954,937.744,994.954z"/>
	<path fill="#FFFFFF" d="M993.796,999.09c5.584,0,10.135-4.55,10.135-10.135c0-5.584-4.551-10.342-10.135-10.342
		c-5.585,0-10.135,4.551-10.135,10.135C983.662,994.333,988.211,999.09,993.796,999.09z M993.796,982.75
		c3.309,0,5.998,2.689,5.998,5.998c0,3.311-2.689,5.998-5.998,5.998c-3.31,0-5.998-2.688-5.998-5.998
		C987.798,985.646,990.487,982.75,993.796,982.75z"/>
	<path fill="#FFFFFF" d="M1049.849,999.09c5.585,0,10.135-4.55,10.135-10.135c0-5.584-4.55-10.135-10.135-10.135
		s-10.136,4.551-10.136,10.135C1039.713,994.54,1044.264,999.09,1049.849,999.09z M1049.849,982.75c3.31,0,5.998,2.689,5.998,5.998
		c0,3.311-2.688,5.998-5.998,5.998s-5.999-2.688-5.999-5.998C1043.85,985.646,1046.54,982.75,1049.849,982.75z"/>
	<path fill="#FFFFFF" d="M937.744,1088.443c-5.585,0-10.135,4.551-10.135,10.136s4.55,10.135,10.135,10.135
		c5.584,0,10.135-4.55,10.135-10.135S943.328,1088.443,937.744,1088.443z M937.744,1104.784c-3.31,0-5.998-2.688-5.998-5.999
		c0-3.309,2.688-5.998,5.998-5.998s5.998,2.689,5.998,5.998C943.742,1101.889,941.053,1104.784,937.744,1104.784z"/>
	<path fill="#FFFFFF" d="M993.796,1088.443c-5.585,0-10.135,4.551-10.135,10.136s4.55,10.135,10.135,10.135
		c5.584,0,10.135-4.55,10.135-10.135S999.38,1088.443,993.796,1088.443z M993.796,1104.784c-3.31,0-5.998-2.688-5.998-5.999
		c0-3.309,2.688-5.998,5.998-5.998c3.309,0,5.998,2.689,5.998,5.998C999.794,1101.889,997.105,1104.784,993.796,1104.784z"/>
	<path fill="#FFFFFF" d="M1049.849,1088.443c-5.585,0-10.136,4.551-10.136,10.136s4.551,10.135,10.136,10.135
		s10.135-4.55,10.135-10.135S1055.434,1088.443,1049.849,1088.443z M1049.849,1104.784c-3.31,0-5.999-2.688-5.999-5.999
		c0-3.309,2.689-5.998,5.999-5.998s5.998,2.689,5.998,5.998C1055.847,1101.889,1053.159,1104.784,1049.849,1104.784z"/>
	<path fill="#FFFFFF" d="M952.842,989.576h25.441c1.24,0,2.068-0.828,2.068-2.068c0-1.241-0.828-2.068-2.068-2.068h-25.441
		c-1.241,0-2.068,0.827-2.068,2.068C950.774,988.541,951.601,989.576,952.842,989.576z"/>
	<path fill="#FFFFFF" d="M1010.343,989.576h25.44c1.241,0,2.068-0.828,2.068-2.068c0-1.241-0.827-2.068-2.068-2.068h-25.44
		c-1.241,0-2.069,0.827-2.069,2.068C1008.274,988.541,1009.102,989.576,1010.343,989.576z"/>
	<path fill="#FFFFFF" d="M1035.784,1096.718h-25.44c-1.241,0-2.069,0.827-2.069,2.067c0,1.242,0.828,2.069,2.069,2.069h25.44
		c1.241,0,2.068-0.827,2.068-2.069C1037.852,1097.545,1036.818,1096.718,1035.784,1096.718z"/>
	<path fill="#FFFFFF" d="M978.697,1096.718h-25.44c-1.241,0-2.068,0.827-2.068,2.067c0,1.242,0.827,2.069,2.068,2.069h25.44
		c1.241,0,2.069-0.827,2.069-2.069C980.766,1097.545,979.938,1096.718,978.697,1096.718z"/>
	<path fill="#FFFFFF" d="M938.157,1083.479v-79.011c0-1.242-0.827-2.068-2.068-2.068c-1.24,0-2.067,0.826-2.067,2.068v79.011
		c0,1.241,0.827,2.069,2.067,2.069C937.33,1085.549,938.157,1084.514,938.157,1083.479z"/>
	<path fill="#FFFFFF" d="M1050.056,1004.469v79.011c0,1.241,0.827,2.069,2.068,2.069c1.24,0,2.068-0.828,2.068-2.069v-79.011
		c0-1.242-0.828-2.068-2.068-2.068C1051.089,1002.4,1050.056,1003.227,1050.056,1004.469z"/>
	<path fill="#FFFFFF" d="M1033.922,1041.285h-3.31v-5.584c0-4.344-3.516-7.86-7.859-7.86h-26.476l11.17-14.893
		c0.62,0.207,1.24,0.414,1.861,0.414c3.516,0,6.205-2.896,6.205-6.205c0-3.517-2.896-6.206-6.205-6.206
		c-3.517,0-6.205,2.896-6.205,6.206c0,1.241,0.413,2.481,1.034,3.517l-12.203,16.133l-8.895-10.342
		c0.414-0.828,0.827-1.861,0.827-3.103c0-3.517-2.896-6.205-6.204-6.205c-3.517,0-6.206,2.896-6.206,6.205
		c0,3.517,2.896,6.205,6.206,6.205c0.827,0,1.654-0.207,2.274-0.413l7.446,8.687h-22.959c-4.344,0-7.859,3.517-7.859,7.86v5.584
		h-3.103c-2.896,0-5.171,2.275-5.171,5.171v12.823c0,2.896,2.275,5.172,5.171,5.172h3.103v5.584c0,4.344,3.516,7.859,7.859,7.859
		h58.328c4.344,0,7.859-3.516,7.859-7.859v-5.584h3.31c2.689,0,4.965-2.275,4.965-4.965v-13.444
		C1038.887,1043.354,1036.612,1041.285,1033.922,1041.285z M1009.309,1004.882c1.24,0,2.068,1.034,2.068,2.068
		s-1.034,2.068-2.068,2.068c-1.035,0-2.068-1.034-2.068-2.068S1008.274,1004.882,1009.309,1004.882z M975.594,1013.362
		c0-1.241,1.034-2.068,2.068-2.068s2.068,1.034,2.068,2.068s-1.034,2.068-2.068,2.068S975.594,1014.396,975.594,1013.362z
		 M953.256,1060.521c-0.621,0-1.034-0.414-1.034-1.035v-12.823c0-0.621,0.413-1.034,1.034-1.034h3.103v15.099h-3.103V1060.521z
		 M1026.269,1070.242c0,2.068-1.654,3.723-3.723,3.723h-58.121c-2.068,0-3.723-1.654-3.723-3.723v-34.541
		c0-2.069,1.654-3.724,3.723-3.724c26.475,0,40.953,0,58.328,0c2.068,0,3.723,1.654,3.723,3.724v34.541H1026.269z M1034.75,1059.693
		c0,0.414-0.413,0.828-0.827,0.828h-3.31v-15.1h3.31c0.414,0,0.827,0.414,0.827,0.828V1059.693z"/>
</g>
<circle fill="#FF0041" cx="641.967" cy="578.037" r="103.111"/>
<circle fill="#FF5A00" cx="1107.758" cy="638.883" r="103.111"/>
<circle fill="#FFB819" cx="477.237" cy="1054.384" r="103.111"/>
<g>
	<path fill="#FFFFFF" d="M673.983,534.005c0.939,0.292,1.879,0.646,2.771,1.063c0.862,0.385,1.693,0.831,2.51,1.308l1.277-1.277
		c1.217-1.201,3.157-1.201,4.357,0l5.959,5.959c1.2,1.2,1.2,3.141,0,4.341l-1.895,1.895c0.216,0.477,0.416,0.954,0.585,1.431
		c0.17,0.432,0.324,0.863,0.462,1.31h2.232c1.709,0,3.079,1.386,3.079,3.079v8.422c0,1.693-1.37,3.079-3.079,3.079h-2.232
		c-0.138,0.431-0.292,0.878-0.462,1.309c-0.185,0.478-0.369,0.954-0.585,1.417l1.895,1.908c1.2,1.201,1.2,3.141,0,4.342
		l-5.959,5.959c-1.2,1.2-3.141,1.2-4.357,0l-1.277-1.294c-0.816,0.493-1.647,0.939-2.51,1.324c-0.893,0.416-1.832,0.77-2.771,1.063
		v2.248c0,1.693-1.385,3.079-3.078,3.079h-8.423c-1.708,0-3.079-1.386-3.079-3.079v-2.248c-0.739-0.231-1.463-0.508-2.187-0.816
		c-0.724-0.292-1.416-0.631-2.094-0.985l-1.524,1.54c-1.2,1.201-3.155,1.201-4.356,0l-5.958-5.958c-1.201-1.201-1.201-3.156,0-4.357
		l1.647-1.647c-0.324-0.616-0.616-1.247-0.878-1.894c-0.246-0.616-0.478-1.263-0.678-1.909h-2.248c-1.693,0-3.079-1.386-3.079-3.079
		v-8.422c0-1.693,1.386-3.079,3.079-3.079h2.248c0.2-0.646,0.432-1.294,0.678-1.909c0.262-0.646,0.554-1.278,0.878-1.895
		l-1.647-1.646c-1.201-1.201-1.201-3.156,0-4.357l5.958-5.958c1.201-1.201,3.156-1.201,4.356,0l1.524,1.539
		c0.678-0.354,1.37-0.692,2.094-1.001c0.709-0.292,1.447-0.569,2.187-0.8v-2.248c0-1.693,1.371-3.079,3.079-3.079h8.423
		c1.693,0,3.078,1.386,3.078,3.079V534.005z M674.229,540.671c-1.216-0.554-2.494-0.97-3.849-1.247
		c-1.447-0.246-2.556-1.509-2.556-3.033v-1.555h-2.263v1.555l0,0c0,1.432-1.017,2.726-2.479,3.018
		c-1.247,0.247-2.417,0.602-3.495,1.063c-1.062,0.446-2.078,1.001-3.063,1.647c-1.201,0.939-2.94,0.847-4.05-0.262l-1.062-1.063
		l-1.602,1.602l1.14,1.14h-0.016c1.016,1,1.216,2.602,0.416,3.849c-0.616,0.938-1.155,1.955-1.586,3.049
		c-0.416,1.016-0.755,2.078-0.97,3.202c-0.246,1.447-1.524,2.556-3.049,2.556h-1.539v2.263h1.539l0,0
		c1.447,0,2.74,1.017,3.033,2.479c0.216,1.14,0.554,2.232,0.985,3.279c0.415,1.017,0.908,1.986,1.462,2.863
		c0.909,1.201,0.816,2.94-0.276,4.034l-1.14,1.124l1.602,1.601l1.062-1.047l0,0c1.032-1.031,2.664-1.216,3.911-0.369
		c1.017,0.693,2.094,1.293,3.202,1.756c1.063,0.445,2.202,0.8,3.403,1.047c1.462,0.246,2.571,1.508,2.571,3.032v1.556h2.263v-1.556
		l0,0c0-1.432,1.001-2.725,2.479-3.018c1.37-0.277,2.694-0.708,3.925-1.263c1.217-0.554,2.356-1.231,3.403-2.017
		c1.216-1.047,3.049-0.985,4.188,0.154l0.908,0.908l1.602-1.602l-1.293-1.293v-0.016c-0.955-0.954-1.186-2.463-0.493-3.694
		c0.478-0.816,0.908-1.709,1.263-2.664c0.323-0.862,0.585-1.771,0.785-2.725c0.23-1.463,1.509-2.572,3.033-2.572h1.539v-2.263
		h-1.539l0,0c-1.447,0-2.726-1.017-3.018-2.479c-0.2-1-0.478-1.939-0.801-2.816c-0.323-0.862-0.708-1.679-1.124-2.448
		c-0.831-1.186-0.724-2.864,0.354-3.926l1.293-1.294l-1.602-1.601l-0.908,0.908v-0.016c-1.078,1.078-2.802,1.216-4.033,0.277
		C676.693,541.964,675.493,541.24,674.229,540.671z"/>
	<path fill="#FFFFFF" d="M666.687,547.322c2.755,0,5.266,1.124,7.066,2.925c1.817,1.817,2.925,4.312,2.925,7.067
		c0,2.771-1.107,5.266-2.925,7.066c-1.801,1.817-4.312,2.941-7.066,2.941c-2.757,0-5.251-1.124-7.067-2.941
		c-1.802-1.801-2.926-4.295-2.926-7.066c0-2.74,1.124-5.234,2.94-7.052l-0.015-0.016
		C661.436,548.446,663.93,547.322,666.687,547.322z M669.396,554.604c-0.692-0.692-1.647-1.124-2.709-1.124
		c-1.063,0-2.018,0.432-2.711,1.124l0,0h-0.015c-0.678,0.693-1.108,1.647-1.108,2.71s0.431,2.032,1.123,2.725
		c0.693,0.693,1.647,1.124,2.711,1.124c1.062,0,2.017-0.431,2.709-1.124c0.692-0.692,1.124-1.662,1.124-2.725
		C670.52,556.268,670.088,555.298,669.396,554.604z"/>
	<path fill="#FFFFFF" d="M624.547,575.436c0.939,0.293,1.878,0.662,2.771,1.063c0.861,0.4,1.693,0.831,2.509,1.324l1.278-1.294
		c1.201-1.2,3.156-1.2,4.357,0l5.958,5.959c1.201,1.2,1.201,3.156,0,4.357l-1.894,1.894c0.215,0.461,0.4,0.938,0.585,1.416
		c0.169,0.432,0.323,0.878,0.446,1.309h2.248c1.709,0,3.079,1.386,3.079,3.079v8.422c0,1.709-1.37,3.079-3.079,3.079h-2.248
		c-0.123,0.447-0.277,0.878-0.446,1.309c-0.185,0.478-0.37,0.955-0.585,1.432l1.894,1.895c1.201,1.201,1.201,3.141,0,4.356
		l-5.958,5.943c-1.201,1.201-3.156,1.201-4.357,0l-1.278-1.278c-0.815,0.478-1.647,0.924-2.509,1.309
		c-0.894,0.416-1.832,0.771-2.771,1.063v2.248c0,1.693-1.386,3.079-3.079,3.079h-8.422c-1.709,0-3.079-1.386-3.079-3.079v-2.248
		c-0.739-0.23-1.479-0.508-2.187-0.801c-0.724-0.308-1.416-0.631-2.094-1.001l-1.524,1.54c-1.216,1.201-3.156,1.201-4.357,0
		l-5.958-5.959c-1.201-1.2-1.201-3.155,0-4.356l1.647-1.632c-0.323-0.631-0.616-1.263-0.878-1.894
		c-0.246-0.632-0.477-1.278-0.677-1.925h-2.248c-1.693,0-3.079-1.37-3.079-3.079v-8.422c0-1.693,1.386-3.079,3.079-3.079h2.248
		c0.2-0.646,0.431-1.277,0.677-1.909c0.262-0.646,0.555-1.278,0.878-1.894l-1.647-1.647c-1.201-1.201-1.201-3.156,0-4.356
		l5.958-5.943c1.201-1.201,3.142-1.201,4.357,0l1.524,1.524c0.678-0.354,1.37-0.693,2.094-0.985c0.708-0.309,1.447-0.57,2.187-0.816
		v-2.232c0-1.709,1.37-3.079,3.079-3.079h8.422c1.693,0,3.079,1.37,3.079,3.079V575.436z M624.793,582.103
		c-1.216-0.539-2.494-0.97-3.849-1.247c-1.463-0.246-2.556-1.509-2.556-3.033v-1.54h-2.264v1.54l0,0
		c0,1.432-1.016,2.725-2.479,3.018c-1.247,0.246-2.417,0.601-3.495,1.063c-1.063,0.446-2.078,1-3.063,1.662
		c-1.201,0.924-2.941,0.847-4.05-0.262l-1.063-1.063l-1.601,1.602l1.139,1.124l-0.015,0.016c1.016,1,1.216,2.602,0.415,3.834
		c-0.615,0.938-1.154,1.954-1.586,3.048c-0.415,1.017-0.754,2.094-0.97,3.202c-0.246,1.447-1.524,2.556-3.048,2.556h-1.54v2.264
		h1.54l0,0c1.447,0,2.74,1.016,3.018,2.479c0.23,1.14,0.569,2.248,1,3.295c0.416,1.016,0.894,1.971,1.463,2.849
		c0.908,1.216,0.816,2.94-0.277,4.033l-1.139,1.14l1.601,1.601l1.063-1.062l0,0c1.032-1.032,2.664-1.217,3.911-0.369
		c1.016,0.707,2.094,1.293,3.202,1.77c1.063,0.432,2.187,0.785,3.402,1.031c1.463,0.247,2.571,1.51,2.571,3.034v1.554h2.264v-1.554
		l0,0c0-1.433,1-2.726,2.463-3.019c1.386-0.276,2.71-0.692,3.941-1.263c1.217-0.538,2.355-1.216,3.402-2.001
		c1.201-1.047,3.033-1,4.188,0.139l0.909,0.908l1.601-1.601l-1.293-1.294l0,0c-0.955-0.954-1.186-2.479-0.493-3.695
		c0.478-0.831,0.909-1.724,1.263-2.679c0.323-0.847,0.585-1.771,0.785-2.725c0.231-1.463,1.509-2.571,3.033-2.571h1.54v-2.264h-1.54
		l0,0c-1.447,0-2.725-1.016-3.018-2.479c-0.2-0.985-0.478-1.939-0.801-2.817c-0.323-0.862-0.708-1.679-1.124-2.433
		c-0.831-1.201-0.724-2.863,0.354-3.941l1.293-1.293l-1.601-1.602l-0.909,0.908l0,0c-1.077,1.063-2.802,1.217-4.033,0.262
		C627.257,583.396,626.056,582.672,624.793,582.103z"/>
	<path fill="#FFFFFF" d="M617.249,588.753c2.756,0,5.266,1.124,7.066,2.94c1.817,1.802,2.926,4.296,2.926,7.067
		c0,2.756-1.108,5.25-2.926,7.066c-1.801,1.802-4.311,2.926-7.066,2.926c-2.74,0-5.234-1.124-7.052-2.926l-0.015-0.015l0,0l0,0
		c-1.817-1.817-2.926-4.312-2.926-7.052c0-2.771,1.124-5.266,2.926-7.067c0.062-0.061,0.138-0.123,0.2-0.184
		C612.184,589.8,614.601,588.753,617.249,588.753z M619.959,596.035c-0.693-0.692-1.647-1.123-2.71-1.123
		c-1.001,0-1.925,0.385-2.602,1c-0.031,0.047-0.077,0.093-0.108,0.123c-0.692,0.693-1.124,1.663-1.124,2.726s0.432,2.017,1.109,2.71
		l0.015,0.015c0.678,0.678,1.647,1.108,2.71,1.108s2.017-0.431,2.71-1.123c0.692-0.693,1.124-1.647,1.124-2.71
		S620.651,596.729,619.959,596.035z"/>
</g>
<circle fill="#9B00C3" cx="818.842" cy="762.57" r="103.111"/>
<g>
	<path fill="#FFFFFF" d="M818.842,734.081c-15.708,0-28.489,12.78-28.489,28.489c0,3.285,0.588,6.43,1.616,9.369
		c0.018,0.313,0.133,0.591,0.305,0.831c4.115,10.679,14.458,18.288,26.568,18.288c0,0,0.001,0,0.002,0l0,0c0,0,0,0,0.001,0
		c15.707-0.001,28.486-12.78,28.486-28.488C847.331,746.861,834.551,734.081,818.842,734.081z M841.419,751.296h-8.908
		c-2.108-6.067-5.537-10.585-8.129-13.359C831.854,739.617,838.067,744.612,841.419,751.296z M793.577,762.57
		c0-2.816,0.483-5.519,1.338-8.051h9.338c-0.607,2.479-0.993,5.151-0.993,8.051c0,2.744,0.375,5.29,0.963,7.67h-9.447
		C794.003,767.819,793.577,765.245,793.577,762.57z M806.483,762.57c0-2.909,0.426-5.594,1.105-8.051h9.642v15.721h-9.684
		C806.889,767.881,806.483,765.321,806.483,762.57z M829.042,751.296h-8.587V738.58
		C822.594,740.601,826.567,744.963,829.042,751.296z M817.23,738.723v12.573h-8.554C811.124,745.139,815.028,740.813,817.23,738.723
		z M817.23,773.465v12.468c-2.493-2.392-6.233-6.667-8.581-12.468H817.23z M820.455,785.914v-12.449h8.571
		C826.675,779.263,822.944,783.521,820.455,785.914z M820.455,770.24V754.52h9.665c0.666,2.455,1.079,5.141,1.079,8.051
		c0,2.752-0.418,5.307-1.08,7.67H820.455z M833.442,754.52h9.327c0.854,2.532,1.338,5.234,1.338,8.051
		c0,2.675-0.425,5.249-1.198,7.67h-9.448c0.588-2.38,0.963-4.926,0.963-7.67C834.424,759.671,834.043,756.998,833.442,754.52z
		 M813.471,737.894c-2.631,2.772-6.129,7.308-8.273,13.402h-8.932C799.643,744.563,805.923,739.535,813.471,737.894z
		 M796.082,773.465h9.104c2.25,6.278,6.02,10.997,8.887,13.904C806.116,785.841,799.497,780.568,796.082,773.465z M823.612,787.369
		c2.867-2.907,6.636-7.626,8.885-13.904h9.105C838.188,780.568,831.568,785.841,823.612,787.369z"/>
	<path fill="#FFFFFF" d="M881.128,721.285c0-11.58-9.421-21-21-21s-21,9.42-21,21c0,11.579,9.421,21,21,21
		S881.128,732.864,881.128,721.285z M849.524,735.519c0.196-4.517,3.147-8.388,7.508-9.711c0.621-0.188,1.069-0.733,1.135-1.38
		c0.066-0.646-0.262-1.269-0.832-1.579c-2.052-1.117-3.326-3.259-3.326-5.592c0-3.508,2.854-6.362,6.361-6.362
		s6.362,2.854,6.362,6.362c0,2.402-1.335,4.573-3.484,5.667c-0.581,0.295-0.926,0.909-0.877,1.558s0.483,1.205,1.1,1.409
		c4.214,1.396,7.066,5.231,7.261,9.628c-2.965,2.214-6.627,3.542-10.604,3.542S852.488,737.732,849.524,735.519z M842.353,721.285
		c0-9.802,7.974-17.776,17.775-17.776s17.775,7.975,17.775,17.776c0,4.412-1.625,8.443-4.295,11.555
		c-0.859-3.693-3.181-6.885-6.459-8.806c1.773-1.767,2.807-4.183,2.807-6.777c0-5.285-4.301-9.585-9.586-9.585
		s-9.586,4.3-9.586,9.585c0,2.492,0.965,4.839,2.627,6.593c-3.451,1.895-5.885,5.161-6.766,8.988
		C843.976,729.728,842.353,725.696,842.353,721.285z"/>
	<path fill="#FFFFFF" d="M777.557,700.285c-11.579,0-21,9.42-21,21c0,11.579,9.421,21,21,21c11.58,0,21-9.421,21-21
		C798.557,709.705,789.137,700.285,777.557,700.285z M766.952,735.518c0.197-4.516,3.147-8.387,7.51-9.71
		c0.62-0.188,1.068-0.733,1.135-1.38c0.066-0.646-0.263-1.269-0.833-1.579c-2.051-1.117-3.326-3.259-3.326-5.592
		c0-3.508,2.854-6.362,6.362-6.362c3.507,0,6.361,2.854,6.361,6.362c0,2.401-1.335,4.573-3.485,5.667
		c-0.579,0.296-0.924,0.91-0.875,1.559c0.048,0.648,0.483,1.204,1.1,1.408c4.213,1.396,7.065,5.231,7.26,9.628
		c-2.964,2.214-6.627,3.542-10.604,3.542S769.917,737.732,766.952,735.518z M791.038,732.84c-0.86-3.693-3.181-6.885-6.461-8.806
		c1.775-1.768,2.809-4.184,2.809-6.777c0-5.285-4.301-9.585-9.586-9.585s-9.586,4.3-9.586,9.585c0,2.492,0.965,4.839,2.626,6.593
		c-3.45,1.895-5.885,5.16-6.767,8.987c-2.668-3.11-4.292-7.142-4.292-11.552c0-9.802,7.974-17.776,17.775-17.776
		s17.776,7.975,17.776,17.776C795.333,725.697,793.708,729.729,791.038,732.84z"/>
	<path fill="#FFFFFF" d="M860.128,825.025c11.579,0,21-9.421,21-21c0-11.58-9.421-21-21-21s-21,9.42-21,21
		C839.128,815.604,848.549,825.025,860.128,825.025z M849.524,818.259c0.196-4.517,3.147-8.388,7.508-9.711
		c0.621-0.189,1.069-0.732,1.135-1.38c0.066-0.646-0.262-1.269-0.832-1.579c-2.052-1.117-3.326-3.259-3.326-5.592
		c0-3.508,2.854-6.361,6.361-6.361s6.362,2.854,6.362,6.361c0,2.402-1.335,4.573-3.484,5.667c-0.581,0.294-0.926,0.909-0.877,1.558
		c0.049,0.649,0.483,1.205,1.1,1.409c4.214,1.396,7.066,5.231,7.261,9.627c-2.965,2.215-6.627,3.544-10.604,3.544
		S852.488,820.473,849.524,818.259z M860.128,786.25c9.802,0,17.775,7.974,17.775,17.775c0,4.411-1.625,8.443-4.295,11.555
		c-0.859-3.693-3.181-6.885-6.459-8.806c1.773-1.767,2.807-4.183,2.807-6.777c0-5.285-4.301-9.585-9.586-9.585
		s-9.586,4.3-9.586,9.585c0,2.491,0.965,4.838,2.627,6.593c-3.451,1.895-5.885,5.161-6.766,8.988
		c-2.67-3.11-4.293-7.143-4.293-11.553C842.353,794.224,850.326,786.25,860.128,786.25z"/>
	<path fill="#FFFFFF" d="M777.557,825.025c11.58,0,21-9.421,21-21c0-11.58-9.42-21-21-21c-11.579,0-21,9.42-21,21
		C756.557,815.604,765.978,825.025,777.557,825.025z M766.952,818.258c0.197-4.516,3.147-8.387,7.51-9.71
		c0.62-0.189,1.068-0.732,1.135-1.38c0.066-0.646-0.263-1.269-0.833-1.579c-2.051-1.117-3.326-3.259-3.326-5.592
		c0-3.508,2.854-6.361,6.362-6.361c3.507,0,6.361,2.854,6.361,6.361c0,2.401-1.335,4.573-3.485,5.667
		c-0.579,0.296-0.924,0.91-0.875,1.559c0.048,0.648,0.483,1.204,1.1,1.408c4.213,1.396,7.065,5.231,7.26,9.627
		c-2.964,2.215-6.627,3.544-10.604,3.544S769.917,820.473,766.952,818.258z M777.557,786.25c9.802,0,17.776,7.974,17.776,17.775
		c0,4.411-1.625,8.443-4.295,11.555c-0.86-3.693-3.181-6.885-6.461-8.806c1.775-1.768,2.809-4.184,2.809-6.777
		c0-5.285-4.301-9.585-9.586-9.585s-9.586,4.3-9.586,9.585c0,2.491,0.965,4.838,2.626,6.593c-3.45,1.895-5.885,5.16-6.767,8.987
		c-2.668-3.11-4.292-7.142-4.292-11.552C759.781,794.224,767.755,786.25,777.557,786.25z"/>
	<path fill="#FFFFFF" d="M838.452,702.65c-6.14-3.029-12.738-4.564-19.61-4.564c-6.871,0-13.47,1.535-19.609,4.564
		c-0.798,0.395-1.127,1.361-0.731,2.159c0.393,0.8,1.359,1.127,2.157,0.733c5.693-2.809,11.811-4.232,18.184-4.232
		s12.491,1.424,18.184,4.232c0.23,0.112,0.473,0.166,0.713,0.166c0.595,0,1.166-0.33,1.446-0.899
		C839.58,704.012,839.251,703.045,838.452,702.65z"/>
	<path fill="#FFFFFF" d="M758.923,782.18c0.28,0.569,0.852,0.899,1.447,0.899c0.239,0,0.481-0.054,0.712-0.167
		c0.798-0.394,1.127-1.36,0.731-2.158c-2.809-5.692-4.231-11.81-4.231-18.184s1.423-12.491,4.231-18.184
		c0.396-0.798,0.066-1.765-0.731-2.159c-0.802-0.391-1.765-0.064-2.159,0.733c-3.028,6.139-4.565,12.736-4.565,19.609
		S755.895,776.041,758.923,782.18z"/>
	<path fill="#FFFFFF" d="M799.232,822.49c6.14,3.029,12.738,4.564,19.609,4.564c6.872,0,13.471-1.535,19.61-4.564
		c0.799-0.395,1.128-1.361,0.732-2.159c-0.394-0.799-1.358-1.125-2.159-0.733c-5.692,2.809-11.811,4.232-18.184,4.232
		s-12.49-1.424-18.184-4.232c-0.799-0.39-1.765-0.064-2.157,0.733C798.105,821.129,798.435,822.096,799.232,822.49z"/>
	<path fill="#FFFFFF" d="M878.762,742.961c-0.393-0.798-1.357-1.124-2.159-0.733c-0.798,0.395-1.127,1.361-0.731,2.159
		c2.809,5.692,4.231,11.81,4.231,18.184s-1.423,12.491-4.231,18.184c-0.396,0.798-0.066,1.765,0.731,2.158
		c0.23,0.113,0.473,0.167,0.712,0.167c0.596,0,1.167-0.33,1.447-0.899c3.028-6.139,4.565-12.736,4.565-19.609
		S881.79,749.1,878.762,742.961z"/>
</g>
<circle fill="#FF0041" cx="1364.845" cy="1130.687" r="103.111"/>
<g>
	<path fill="#FFFFFF" d="M1323.625,1179.871h-11.14c-1.519,0-2.748-1.23-2.748-2.748v-53.473c0-1.519,1.229-2.748,2.748-2.748
		c1.518,0,2.748,1.229,2.748,2.748v50.725h5.644v-50.725c0-1.519,1.23-2.748,2.748-2.748s2.748,1.229,2.748,2.748v53.473
		C1326.374,1178.641,1325.143,1179.871,1323.625,1179.871z"/>
	<path fill="#FFFFFF" d="M1354.829,1179.871h-11.14c-1.518,0-2.748-1.23-2.748-2.748v-53.473c0-1.519,1.23-2.748,2.748-2.748
		s2.748,1.229,2.748,2.748v50.725h5.644v-50.725c0-1.519,1.23-2.748,2.748-2.748s2.748,1.229,2.748,2.748v53.473
		C1357.577,1178.641,1356.346,1179.871,1354.829,1179.871z"/>
	<path fill="#FFFFFF" d="M1386.04,1179.871h-11.141c-1.518,0-2.748-1.23-2.748-2.748v-53.473c0-1.519,1.23-2.748,2.748-2.748
		s2.748,1.229,2.748,2.748v50.725h5.645v-50.725c0-1.519,1.23-2.748,2.748-2.748s2.748,1.229,2.748,2.748v53.473
		C1388.788,1178.641,1387.557,1179.871,1386.04,1179.871z"/>
	<path fill="#FFFFFF" d="M1417.244,1179.871h-11.141c-1.518,0-2.748-1.23-2.748-2.748v-53.473c0-1.519,1.23-2.748,2.748-2.748
		s2.748,1.229,2.748,2.748v50.725h5.645v-50.725c0-1.519,1.23-2.748,2.748-2.748s2.748,1.229,2.748,2.748v53.473
		C1419.992,1178.641,1418.761,1179.871,1417.244,1179.871z"/>
	<path fill="#FFFFFF" d="M1426.156,1191.007h-122.623c-1.518,0-2.748-1.23-2.748-2.748v-11.136c0-1.518,1.23-2.748,2.748-2.748
		h122.623c1.518,0,2.748,1.23,2.748,2.748v11.136C1428.904,1189.776,1427.673,1191.007,1426.156,1191.007z M1306.281,1185.511
		h117.127v-5.64h-117.127V1185.511z"/>
	<path fill="#FFFFFF" d="M1426.156,1126.398h-122.623c-1.518,0-2.748-1.23-2.748-2.748v-11.136c0-1.519,1.23-2.748,2.748-2.748
		s2.748,1.229,2.748,2.748v8.388h117.127v-8.388c0-1.519,1.23-2.748,2.748-2.748s2.748,1.229,2.748,2.748v11.136
		C1428.904,1125.168,1427.673,1126.398,1426.156,1126.398z"/>
	<path fill="#FFFFFF" d="M1426.156,1115.263c-0.316,0-0.638-0.054-0.951-0.17l-60.36-22.269l-60.36,22.269
		c-1.424,0.525-3.004-0.203-3.529-1.627s0.203-3.005,1.627-3.53l61.312-22.619c0.613-0.227,1.288-0.227,1.902,0l61.312,22.619
		c1.424,0.525,2.152,2.106,1.627,3.53C1428.324,1114.576,1427.273,1115.263,1426.156,1115.263z"/>
	<path fill="#FFFFFF" d="M1364.844,1092.643c-1.518,0-2.748-1.23-2.748-2.748v-29.385c0-1.518,1.23-2.748,2.748-2.748
		s2.748,1.23,2.748,2.748v29.385C1367.592,1091.412,1366.362,1092.643,1364.844,1092.643z"/>
	<path fill="#FFFFFF" d="M1378.212,1079.066h-13.368c-1.518,0-2.748-1.23-2.748-2.748v-15.809c0-1.518,1.23-2.748,2.748-2.748
		h13.368c1.518,0,2.748,1.23,2.748,2.748v15.809C1380.96,1077.836,1379.73,1079.066,1378.212,1079.066z M1367.592,1073.57h7.872
		v-10.313h-7.872V1073.57z"/>
	<path fill="#FFFFFF" d="M1391.581,1083.521h-13.368c-1.518,0-2.748-1.23-2.748-2.748v-15.808c0-1.518,1.23-2.748,2.748-2.748
		h13.368c1.518,0,2.748,1.23,2.748,2.748v15.808C1394.329,1082.291,1393.098,1083.521,1391.581,1083.521z M1380.96,1078.025h7.872
		v-10.312h-7.872V1078.025z"/>
</g>
<circle fill="#FF5A00" cx="869.361" cy="356.127" r="103.111"/>
<g>
	<path fill="#FFFFFF" d="M900.635,423.484h-7.891l-8.019-24.057h35.154c6.64-0.008,12.021-5.389,12.028-12.027v-72.17
		c-0.008-6.64-5.389-12.021-12.028-12.028h-14.434v4.812h14.434c3.985,0,7.217,3.23,7.217,7.217v64.953H811.625V315.23
		c0-3.986,3.231-7.217,7.218-7.217h69.764v-4.812h-69.764c-6.641,0.008-12.021,5.389-12.028,12.028v72.17
		c0.008,6.639,5.388,12.02,12.028,12.027h35.153l-8.018,24.057h-7.891v4.812h62.547V423.484z M818.843,394.617
		c-3.986,0-7.218-3.231-7.218-7.217v-2.406h115.472v2.406c0,3.985-3.231,7.217-7.217,7.217H818.843z M851.05,423.484l8.018-24.057
		h20.587l8.019,24.057H851.05z"/>
	<path fill="#FFFFFF" d="M818.843,372.966H919.88v-50.519c0-1.328-1.077-2.405-2.405-2.405H903.04c-1.328,0-2.405,1.077-2.405,2.405
		v45.707h-4.812V332.07c0-1.328-1.077-2.406-2.405-2.406h-14.435c-1.328,0-2.405,1.078-2.405,2.406v36.084h-4.812v-26.462
		c0-1.328-1.077-2.405-2.405-2.405h-14.435c-1.328,0-2.405,1.077-2.405,2.405v26.462h-4.812v-7.217c0-1.328-1.077-2.405-2.405-2.405
		h-14.434c-1.329,0-2.406,1.077-2.406,2.405v7.217h-9.622V372.966z M905.446,324.853h9.622v4.812h-9.622V324.853z M905.446,334.476
		h9.622v4.812h-9.622V334.476z M905.446,344.099h9.622v4.811h-9.622V344.099z M905.446,353.721h9.622v4.812h-9.622V353.721z
		 M905.446,363.344h9.622v4.811h-9.622V363.344z M881.39,334.476h9.622v4.812h-9.622V334.476z M881.39,344.099h9.622v4.811h-9.622
		V344.099z M881.39,353.721h9.622v4.812h-9.622V353.721z M881.39,363.344h9.622v4.811h-9.622V363.344z M857.333,344.099h9.622v4.811
		h-9.622V344.099z M857.333,353.721h9.622v4.812h-9.622V353.721z M857.333,363.344h9.622v4.811h-9.622V363.344z M833.276,363.344
		h9.622v4.811h-9.622V363.344z"/>
	<rect x="818.843" y="339.287" fill="#FFFFFF" width="4.811" height="4.812"/>
	<rect x="818.843" y="348.909" fill="#FFFFFF" width="4.811" height="4.812"/>
	<rect x="818.843" y="358.532" fill="#FFFFFF" width="4.811" height="4.812"/>
	<rect x="818.843" y="329.664" fill="#FFFFFF" width="4.811" height="4.812"/>
	<rect x="818.843" y="320.042" fill="#FFFFFF" width="4.811" height="4.811"/>
	<path fill="#FFFFFF" d="M910.329,296.57l4.667-1.17l-2.405-9.622c-0.323-1.288-1.628-2.07-2.916-1.749l-9.623,2.405l1.165,4.667
		l3.587-0.891l-19.585,29.374l-12.691-4.231c-0.864-0.288-1.817-0.063-2.462,0.582l-13.524,13.524l-10.755-2.153
		c-1.064-0.214-2.14,0.312-2.625,1.282l-9.623,19.245l4.307,2.15l8.8-17.602l10.227,2.045c0.786,0.155,1.598-0.092,2.165-0.657
		l13.385-13.383l13.022,4.343c1.028,0.343,2.159-0.046,2.761-0.948l21.041-31.562L910.329,296.57z"/>
</g>
<circle fill="#9B00C3" cx="737.613" cy="1340.183" r="103.111"/>
<g>
	<g>
		<path fill="#FFFFFF" d="M787.067,1330.618h9.564c0.934,3.267,3.966,5.599,7.465,5.599c4.433,0,7.932-3.499,7.932-7.932
			c0-4.432-3.499-7.931-7.932-7.931c-3.499,0-6.531,2.333-7.465,5.599h-9.564v-19.129h9.564c0.934,3.266,3.966,5.6,7.465,5.6
			c4.433,0,7.932-3.5,7.932-7.932c0-4.433-3.499-7.932-7.932-7.932c-3.499,0-6.531,2.332-7.465,5.598h-9.564v-6.298
			c0-3.032-2.566-5.599-5.599-5.599h-6.065v-9.331c3.267-0.933,5.6-3.966,5.6-7.465c0-4.432-3.5-7.932-7.932-7.932
			c-4.433,0-7.932,3.5-7.932,7.932c0,3.499,2.333,6.532,5.599,7.465v9.331h-19.129v-9.331c3.267-0.933,5.6-3.966,5.6-7.465
			c0-4.432-3.5-7.932-7.932-7.932c-4.433,0-7.932,3.5-7.932,7.932c0,3.499,2.332,6.532,5.599,7.465v9.331h-19.129v-9.331
			c3.267-0.933,5.599-3.966,5.599-7.465c0-4.432-3.499-7.932-7.931-7.932c-4.433,0-7.932,3.5-7.932,7.932
			c0,3.499,2.333,6.532,5.599,7.465v9.331h-18.896v-9.331c3.266-0.933,5.599-3.966,5.599-7.465c0-4.432-3.499-7.932-7.932-7.932
			c-4.432,0-7.931,3.5-7.931,7.932c0,3.499,2.332,6.532,5.599,7.465v9.331h-6.065c-3.032,0-5.599,2.566-5.599,5.599v6.298h-9.564
			c-0.933-3.266-3.966-5.598-7.465-5.598c-4.433,0-7.932,3.499-7.932,7.932c0,4.432,3.499,7.932,7.932,7.932
			c3.499,0,6.532-2.334,7.465-5.6h9.564v19.129h-9.564c-0.933-3.266-3.966-5.599-7.465-5.599c-4.433,0-7.932,3.499-7.932,7.931
			c0,4.433,3.499,7.932,7.932,7.932c3.499,0,6.532-2.332,7.465-5.599h9.564v18.896h-9.564c-0.933-3.266-3.966-5.599-7.465-5.599
			c-4.433,0-7.932,3.499-7.932,7.932s3.499,7.931,7.932,7.931c3.499,0,6.532-2.332,7.465-5.598h9.564v19.128h-9.564
			c-0.933-3.266-3.966-5.599-7.465-5.599c-4.433,0-7.932,3.499-7.932,7.932s3.499,7.932,7.932,7.932
			c3.499,0,6.532-2.333,7.465-5.599h9.564v5.832c0,3.032,2.566,5.599,5.599,5.599h6.065v10.03c-3.267,0.934-5.599,3.966-5.599,7.466
			c0,4.432,3.499,7.931,7.931,7.931c4.433,0,7.932-3.499,7.932-7.931c0-3.5-2.333-6.532-5.599-7.466v-10.03h19.129v10.03
			c-3.266,0.934-5.599,3.966-5.599,7.466c0,4.432,3.499,7.931,7.932,7.931c4.432,0,7.931-3.499,7.931-7.931
			c0-3.5-2.333-6.532-5.599-7.466v-10.03h19.129v10.03c-3.266,0.934-5.599,3.966-5.599,7.466c0,4.432,3.499,7.931,7.931,7.931
			c4.433,0,7.932-3.499,7.932-7.931c0-3.5-2.332-6.532-5.598-7.466v-10.03h19.128v10.03c-3.266,0.934-5.599,3.966-5.599,7.466
			c0,4.432,3.499,7.931,7.932,7.931c4.432,0,7.931-3.499,7.931-7.931c0-3.5-2.332-6.532-5.598-7.466v-10.03h6.064
			c3.033,0,5.599-2.566,5.599-5.599v-5.832h9.564c0.933,3.266,3.966,5.599,7.465,5.599c4.433,0,7.932-3.499,7.932-7.932
			s-3.499-7.932-7.932-7.932c-3.499,0-6.532,2.333-7.465,5.599H787.3v-18.896h9.564c0.933,3.267,3.966,5.6,7.465,5.6
			c4.433,0,7.932-3.5,7.932-7.932c0-4.433-3.499-7.932-7.932-7.932c-3.499,0-6.532,2.332-7.465,5.599H787.3v-19.129H787.067z
			 M804.33,1325.02c1.866,0,3.266,1.4,3.266,3.266c0,1.867-1.399,3.266-3.266,3.266s-3.267-1.398-3.267-3.266
			C801.063,1326.652,802.463,1325.02,804.33,1325.02z M804.33,1301.459c1.866,0,3.266,1.4,3.266,3.266
			c0,1.867-1.399,3.266-3.266,3.266s-3.267-1.398-3.267-3.266C801.063,1302.859,802.463,1301.459,804.33,1301.459z M773.071,1270.2
			c1.866,0,3.266,1.399,3.266,3.266s-1.399,3.267-3.266,3.267s-3.266-1.4-3.266-3.267S771.438,1270.2,773.071,1270.2z
			 M749.509,1270.2c1.867,0,3.267,1.399,3.267,3.266s-1.399,3.267-3.267,3.267c-1.865,0-3.266-1.4-3.266-3.267
			S747.644,1270.2,749.509,1270.2z M725.716,1270.2c1.865,0,3.266,1.399,3.266,3.266s-1.4,3.267-3.266,3.267
			c-1.867,0-3.267-1.4-3.267-3.267S724.083,1270.2,725.716,1270.2z M702.155,1270.2c1.866,0,3.266,1.399,3.266,3.266
			s-1.399,3.267-3.266,3.267s-3.266-1.4-3.266-3.267S700.289,1270.2,702.155,1270.2z M670.896,1307.99
			c-1.866,0-3.266-1.398-3.266-3.266c0-1.865,1.399-3.266,3.266-3.266s3.266,1.4,3.266,3.266
			C674.162,1306.357,672.762,1307.99,670.896,1307.99z M670.896,1331.551c-1.866,0-3.266-1.398-3.266-3.266
			c0-1.865,1.399-3.266,3.266-3.266s3.266,1.4,3.266,3.266C674.162,1330.152,672.762,1331.551,670.896,1331.551z M670.896,1355.346
			c-1.866,0-3.266-1.399-3.266-3.266s1.399-3.266,3.266-3.266s3.266,1.399,3.266,3.266
			C674.162,1353.713,672.762,1355.346,670.896,1355.346z M670.896,1378.906c-1.866,0-3.266-1.399-3.266-3.266
			s1.399-3.266,3.266-3.266s3.266,1.399,3.266,3.266S672.762,1378.906,670.896,1378.906z M702.155,1410.166
			c-1.866,0-3.266-1.4-3.266-3.266c0-1.867,1.399-3.267,3.266-3.267s3.266,1.399,3.266,3.267
			C705.42,1408.766,703.788,1410.166,702.155,1410.166z M725.716,1410.166c-1.867,0-3.267-1.4-3.267-3.266
			c0-1.867,1.399-3.267,3.267-3.267c1.865,0,3.266,1.399,3.266,3.267C728.982,1408.766,727.582,1410.166,725.716,1410.166z
			 M749.509,1410.166c-1.865,0-3.266-1.4-3.266-3.266c0-1.867,1.4-3.267,3.266-3.267c1.867,0,3.267,1.399,3.267,3.267
			C752.776,1408.766,751.143,1410.166,749.509,1410.166z M773.071,1410.166c-1.866,0-3.266-1.4-3.266-3.266
			c0-1.867,1.399-3.267,3.266-3.267s3.266,1.399,3.266,3.267C776.336,1408.766,774.937,1410.166,773.071,1410.166z M804.33,1372.375
			c1.866,0,3.266,1.399,3.266,3.266s-1.399,3.266-3.266,3.266s-3.267-1.399-3.267-3.266
			C801.063,1374.008,802.463,1372.375,804.33,1372.375z M804.33,1348.814c1.866,0,3.266,1.399,3.266,3.266s-1.399,3.266-3.266,3.266
			s-3.267-1.399-3.267-3.266S802.463,1348.814,804.33,1348.814z M782.402,1384.039c0,0.466-0.467,0.933-0.934,0.933h-87.944
			c-0.467,0-0.934-0.467-0.934-0.933v-88.179c0-0.466,0.467-0.933,0.934-0.933h87.944c0.467,0,0.934,0.467,0.934,0.933V1384.039z"/>
	</g>
	<g>
		<path fill="#FFFFFF" d="M761.173,1327.819h-3.732v-4.665c0-10.965-8.864-19.829-19.828-19.829s-19.828,8.864-19.828,19.829v4.665
			h-3.732c-1.399,0-2.333,0.933-2.333,2.333v44.089c0,1.399,0.934,2.333,2.333,2.333h47.121c1.4,0,2.333-0.934,2.333-2.333v-44.089
			C763.506,1328.752,762.574,1327.819,761.173,1327.819z M722.45,1322.92c0-8.397,6.765-15.162,15.163-15.162
			s15.163,6.765,15.163,15.162v4.666H722.45V1322.92z M758.841,1371.908h-42.456v-39.424c12.597,0,21.694,0,42.456,0V1371.908z"/>
	</g>
	<g>
		<path fill="#FFFFFF" d="M737.613,1340.649c-4.199,0-7.465,3.266-7.465,7.465c0,3.266,2.1,6.065,5.132,6.998v6.065
			c0,1.399,0.934,2.332,2.333,2.332c1.4,0,2.333-0.933,2.333-2.332v-6.065c3.032-0.933,5.132-3.732,5.132-6.998
			C745.078,1343.915,741.812,1340.649,737.613,1340.649z M737.613,1350.914c-1.633,0-2.799-1.167-2.799-2.8
			c0-1.634,1.166-2.8,2.799-2.8s2.799,1.166,2.799,2.8C740.412,1349.747,739.246,1350.914,737.613,1350.914z"/>
	</g>
</g>
<g>
	<g>
		<path fill="#FFFFFF" d="M1538.885,520.274c-4.649,0-8.453,3.804-8.453,8.453s3.804,8.454,8.453,8.454s8.454-3.805,8.454-8.454
			S1543.534,520.274,1538.885,520.274z M1538.885,532.954c-2.324,0-4.227-1.901-4.227-4.227c0-2.324,1.902-4.227,4.227-4.227
			c2.325,0,4.227,1.902,4.227,4.227C1543.111,531.053,1541.21,532.954,1538.885,532.954z"/>
		<path fill="#FFFFFF" d="M1563.188,523.021c-13.736-12.68-34.87-12.68-48.818,0l-6.129,5.706l6.129,5.706
			c13.737,12.681,34.87,12.681,48.818,0l6.129-5.706L1563.188,523.021z M1560.441,531.264c-12.258,11.201-30.855,11.201-42.901,0
			l-2.959-2.536l2.959-2.535c12.258-11.201,30.855-11.201,42.901,0l2.958,2.535L1560.441,531.264z"/>
		<path fill="#FFFFFF" d="M1618.981,597.412l-30.01-30.01c-1.479-1.479-3.593-1.902-5.494-1.269l-9.934-9.933
			c15.217-19.231,12.046-47.339-7.186-62.555s-47.128-12.047-62.555,7.396c-15.428,19.442-12.047,47.128,7.396,62.344
			c16.272,12.892,39.097,12.892,55.37,0l9.933,9.933c-0.634,1.902-0.212,4.016,1.268,5.495l30.01,30.01
			c3.171,3.169,8.242,3.169,11.412,0C1622.151,605.653,1622.151,600.582,1618.981,597.412L1618.981,597.412L1618.981,597.412z
			 M1498.731,528.728c0-22.189,17.964-40.153,40.153-40.153c22.19,0,40.154,17.964,40.154,40.153
			c0,22.191-17.964,40.154-40.154,40.154C1516.695,568.882,1498.731,550.919,1498.731,528.728z M1569.529,560.64
			c0.423-0.423,0.845-0.846,1.268-1.268l9.51,9.51l-1.268,1.268L1569.529,560.64z M1613.275,606.922
			c-1.057,0-2.113-0.423-2.747-1.057l-30.01-30.01c-0.423-0.423-0.423-0.845,0-1.268l0,0l1.479-1.479l1.268-1.269l1.479-1.479l0,0
			c0.422-0.422,0.845-0.422,1.268,0l30.01,30.01c1.479,1.479,1.479,4.016,0,5.495
			C1615.177,606.499,1614.332,606.922,1613.275,606.922z"/>
		<path fill="#FFFFFF" d="M1538.885,490.688c-20.922,0-38.04,17.118-38.04,38.04c0,20.923,17.118,38.041,38.04,38.041
			c20.923,0,38.041-17.118,38.041-38.041C1576.926,507.806,1559.808,490.688,1538.885,490.688z M1538.885,562.542
			c-18.597,0-33.813-15.217-33.813-33.814c0-18.597,15.217-33.813,33.813-33.813c18.598,0,33.814,15.217,33.814,33.813
			C1572.699,547.325,1557.482,562.542,1538.885,562.542z"/>
		<path fill="#FFFFFF" d="M1606.513,505.481v73.967h4.227v-73.967c0-5.918-4.649-10.567-10.566-10.567h-23.247v4.228h23.247
			C1603.766,499.142,1606.513,501.888,1606.513,505.481z"/>
		<path fill="#FFFFFF" d="M1509.298,590.015v-21.133h-4.227v21.133c0,5.918,4.649,10.567,10.566,10.567h73.968v-4.227h-73.968
			C1512.046,596.355,1509.298,593.607,1509.298,590.015z"/>
		<rect x="1585.379" y="505.481" fill="#FFFFFF" width="16.907" height="4.227"/>
		<rect x="1585.379" y="516.048" fill="#FFFFFF" width="16.907" height="4.227"/>
		<rect x="1585.379" y="526.614" fill="#FFFFFF" width="16.907" height="4.227"/>
		<rect x="1585.379" y="537.182" fill="#FFFFFF" width="16.907" height="4.227"/>
		<rect x="1581.152" y="547.748" fill="#FFFFFF" width="21.134" height="4.228"/>
		<rect x="1581.152" y="558.315" fill="#FFFFFF" width="21.134" height="4.227"/>
		<rect x="1595.945" y="568.882" fill="#FFFFFF" width="6.341" height="4.227"/>
		<rect x="1513.524" y="575.222" fill="#FFFFFF" width="57.062" height="4.227"/>
		<rect x="1513.524" y="585.788" fill="#FFFFFF" width="65.515" height="4.227"/>
		<rect x="1519.865" y="547.748" fill="#FFFFFF" width="38.04" height="4.228"/>
		<rect x="1519.865" y="505.481" fill="#FFFFFF" width="38.04" height="4.227"/>
	</g>
	<path fill="#FFFFFF" d="M1538.903,484.479c-24.438,0-44.249,19.811-44.249,44.249s19.812,44.249,44.249,44.249
		s44.249-19.811,44.249-44.249S1563.341,484.479,1538.903,484.479z M1538.903,562.176c-18.473,0-33.448-14.976-33.448-33.448
		c0-18.474,14.976-33.448,33.448-33.448c18.474,0,33.448,14.975,33.448,33.448C1572.352,547.2,1557.377,562.176,1538.903,562.176z"
		/>
</g>
<g>
	<path fill="#FFFFFF" d="M477.238,1106.733c-0.904,0-1.751-0.444-2.264-1.19l-29.692-43.138c-0.039-0.056-0.075-0.114-0.11-0.173
		c-0.617-0.911-1.116-1.707-1.562-2.492c-3.282-5.78-5.017-12.371-5.017-19.059c0-21.31,17.336-38.646,38.645-38.646
		c21.307,0,38.642,17.336,38.642,38.646c0,7.74-2.281,15.203-6.601,21.594c-0.026,0.044-0.055,0.088-0.084,0.13l-29.693,43.138
		C478.989,1106.289,478.143,1106.733,477.238,1106.733z M449.919,1059.449l27.319,39.689l27.351-39.734
		c0.021-0.035,0.044-0.07,0.067-0.104c3.747-5.501,5.728-11.939,5.728-18.619c0-18.279-14.869-33.15-33.146-33.15
		c-18.278,0-33.148,14.871-33.148,33.15c0,5.738,1.486,11.391,4.3,16.344c0.396,0.697,0.851,1.42,1.434,2.272
		C449.856,1059.348,449.889,1059.397,449.919,1059.449z M477.238,1061.127c-11.548,0-20.942-9.395-20.942-20.943
		c0-11.547,9.395-20.942,20.942-20.942s20.943,9.396,20.943,20.942C498.182,1051.732,488.786,1061.127,477.238,1061.127z
		 M477.238,1024.737c-8.518,0-15.446,6.93-15.446,15.446c0,8.518,6.929,15.447,15.446,15.447s15.447-6.93,15.447-15.447
		C492.686,1031.667,485.756,1024.737,477.238,1024.737z"/>
</g>
<g>
	<path fill="#FFFFFF" d="M397.483,679.044h-9.079c-2.2,0-3.979-1.779-3.979-3.979c0-2.201,1.779-3.98,3.979-3.98h9.079
		c0.732,0,1.182-0.402,1.385-0.641c0.207-0.243,0.529-0.748,0.41-1.473l-0.876-5.242c-0.896-5.357-5.118-9.412-10.511-10.09
		l-7.889-1.632c-3.392-0.704-6.567-2.037-9.441-3.952l-12.815-8.541c-4.167-2.782-9.016-4.251-14.018-4.251h-16.486
		c-3.335,0-6.643,1.099-9.31,3.101l-6.467,4.855c-3.256,2.44-7.085,4.155-11.077,4.948l-9.871,1.974
		c-0.938,0.188-1.615,1.015-1.615,1.971v15.072c0,2.153,1.747,3.9,3.896,3.9h4.063c2.197,0,3.98,1.779,3.98,3.98
		c0,2.2-1.783,3.979-3.98,3.979h-4.063c-6.54,0-11.856-5.321-11.856-11.856v-15.072c0-4.733,3.371-8.849,8.012-9.775l9.874-1.975
		c2.83-0.564,5.549-1.779,7.856-3.51l6.469-4.856c4.039-3.028,9.042-4.696,14.089-4.696h16.486c6.582,0,12.954,1.931,18.432,5.58
		l12.815,8.541c2.025,1.35,4.259,2.285,6.65,2.787l7.57,1.575c8.593,1.067,15.578,7.766,17.055,16.625l0.876,5.246
		c0.474,2.842-0.326,5.728-2.185,7.924C403.083,677.787,400.361,679.044,397.483,679.044L397.483,679.044z M308.803,690.984
		c-8.78,0-15.921-7.14-15.921-15.92s7.141-15.921,15.921-15.921s15.92,7.141,15.92,15.921S317.583,690.984,308.803,690.984z
		 M308.803,667.104c-4.39,0-7.96,3.57-7.96,7.961c0,4.39,3.57,7.96,7.96,7.96s7.96-3.57,7.96-7.96
		C316.763,670.674,313.192,667.104,308.803,667.104z M376.464,690.984c-8.779,0-15.92-7.14-15.92-15.92s7.141-15.921,15.92-15.921
		c8.781,0,15.921,7.141,15.921,15.921S385.245,690.984,376.464,690.984z M376.464,667.104c-4.39,0-7.96,3.57-7.96,7.961
		c0,4.39,3.57,7.96,7.96,7.96c4.391,0,7.961-3.57,7.961-7.96C384.425,670.674,380.854,667.104,376.464,667.104z M364.524,679.044
		h-43.781c-2.197,0-3.98-1.779-3.98-3.979c0-2.201,1.783-3.98,3.98-3.98h43.781c2.201,0,3.979,1.779,3.979,3.98
		C368.504,677.265,366.726,679.044,364.524,679.044z M378.395,585.571c-1.019,0-2.038-0.39-2.813-1.166
		c-8.271-8.271-19.265-12.824-30.958-12.824s-22.687,4.554-30.957,12.824c-1.556,1.556-4.071,1.556-5.628,0
		c-1.556-1.557-1.556-4.076,0-5.628c9.775-9.775,22.767-15.156,36.585-15.156c13.819,0,26.811,5.381,36.585,15.156
		c1.557,1.552,1.557,4.071,0,5.628C380.433,585.182,379.413,585.571,378.395,585.571z M364.325,599.641
		c-1.02,0-2.038-0.39-2.814-1.162c-4.514-4.513-10.511-6.997-16.888-6.997c-6.38,0-12.374,2.484-16.888,6.993
		c-1.556,1.557-4.071,1.557-5.627,0c-1.557-1.556-1.557-4.071,0-5.628c6.014-6.014,14.01-9.325,22.515-9.325
		c8.502,0,16.498,3.312,22.516,9.325c1.557,1.557,1.557,4.072,0,5.632C366.362,599.255,365.344,599.641,364.325,599.641
		L364.325,599.641z M350.251,613.715c-1.022,0-2.042-0.391-2.817-1.17c-1.497-1.497-4.119-1.501-5.624,0
		c-1.553,1.552-4.072,1.556-5.628,0.004c-1.556-1.553-1.556-4.072-0.004-5.628c4.51-4.518,12.39-4.514,16.892,0
		c1.552,1.556,1.552,4.075-0.008,5.628C352.285,613.328,351.271,613.715,350.251,613.715L350.251,613.715z"/>
</g>
<g>
	<path fill="#FFFFFF" d="M1107.929,626.509c-5.328,0-9.797,4.297-9.797,9.796c0,5.33,4.296,9.798,9.797,9.798
		s9.798-4.297,9.798-9.798C1117.728,630.977,1113.258,626.509,1107.929,626.509z M1107.929,640.604
		c-2.406,0-4.296-1.891-4.296-4.299c0-2.406,1.89-4.297,4.296-4.297c2.407,0,4.298,1.891,4.298,4.297
		C1112.227,638.713,1110.336,640.604,1107.929,640.604z"/>
	<path fill="#FFFFFF" d="M1179.78,605.709h-20.799v-1.202c0-1.547-1.204-2.751-2.75-2.751c-1.547,0-2.75,1.204-2.75,2.751v1.202
		h-21.142c-1.547,0-2.75,1.204-2.75,2.75c0,1.549,1.203,2.751,2.75,2.751h21.314v2.062c-2.922,1.033-5.157,3.782-5.157,7.221v1.72
		h-12.892c-1.203-3.439-4.297-5.846-8.079-5.846h-39.019c-3.781,0-7.047,2.578-8.079,5.846h-12.891v-1.72
		c0-3.267-2.063-6.018-4.984-7.047v-2.408h20.798c1.547,0,2.75-1.202,2.75-2.75c0-1.547-1.204-2.749-2.75-2.749h-20.798v-1.204
		c0-1.546-1.204-2.75-2.75-2.75s-2.75,1.204-2.75,2.75v1.204h-21.143c-1.546,0-2.75,1.202-2.75,2.749c0,1.548,1.204,2.75,2.75,2.75
		h21.314v2.063c-2.922,1.032-4.985,3.782-4.985,7.048v9.109c0,4.126,3.438,7.563,7.563,7.563c4.125,0,7.563-3.438,7.563-7.563v-1.89
		h12.892c1.204,3.438,4.297,5.844,8.079,5.844h0.344v7.22c0,0.515,0,0.859,0,1.374c-3.094,0.517-7.047,2.75-8.938,8.596
		l-5.329,20.281h-2.75c-1.547,0-2.75,1.204-2.75,2.751c0,1.548,1.203,2.75,2.75,2.75h4.813l0,0l0,0h5.844
		c1.547,0,2.75-1.202,2.75-2.75c0-1.547-1.203-2.751-2.75-2.751h-2.406l5.156-18.907c1.204-4.124,3.954-4.812,5.157-4.812
		c2.406,4.642,7.219,7.907,12.891,7.907h9.455c5.672,0,10.485-3.266,12.892-7.907c1.203,0,3.954,0.688,5.156,4.642l4.985,18.906
		h-2.406c-1.547,0-2.75,1.204-2.75,2.749c0,1.549,1.204,2.751,2.75,2.751h5.845l0,0l0,0h4.813c1.547,0,2.75-1.202,2.75-2.751
		c0-1.545-1.203-2.749-2.75-2.749h-2.75l-5.329-20.455c-1.72-5.671-5.672-7.906-8.766-8.422c0-0.517,0-0.86,0-1.376v-7.22h0.343
		c3.781,0,7.048-2.578,8.079-5.844h12.891v1.892c0,4.125,3.438,7.563,7.563,7.563c4.125,0,7.563-3.438,7.563-7.563v-9.11
		c0-3.094-1.891-5.844-4.641-7.048v-1.892h20.799c1.547,0,2.75-1.202,2.75-2.75C1182.358,606.74,1181.326,605.709,1179.78,605.709z
		 M1062.035,629.258c0,1.203-1.031,2.235-2.234,2.235s-2.235-1.032-2.235-2.235v-9.109c0-1.204,1.032-2.234,2.235-2.234
		s2.234,1.03,2.234,2.234V629.258z M1127.524,627.883h-5.844l0.172,2.923c0,0.171,0,0.515,0,0.688v8.938
		c0,4.984-4.125,9.11-9.11,9.11h-9.453c-4.985,0-9.111-4.126-9.111-9.11v-8.938c0-0.345,0-0.517,0-0.688l0.172-2.923h-5.845
		c-1.718,0-3.093-1.374-3.266-3.093v-0.173v-0.172c0.172-1.719,1.547-3.095,3.266-3.095h39.019c1.719,0,3.267,1.376,3.267,3.267
		C1130.618,626.336,1129.244,627.883,1127.524,627.883z M1158.293,629.258c0,1.203-1.031,2.235-2.234,2.235
		c-1.204,0-2.235-1.032-2.235-2.235v-9.109c0-1.204,1.031-2.234,2.235-2.234c1.203,0,2.234,1.03,2.234,2.234V629.258z"/>
</g>
</svg>
